#Comment line ignore any data following # character 
#Hierarchical Translation and Rotation (.htr) file 
[Header]	
#Header keywords are followed by a single value 
FileType HTR		#Single word string
DataType HTRS		#Translation followed by rotation and scale data
FileVersion 1		#integer
NumSegments 84		#integer
NumFrames 2		#integer
DataFrameRate 30		#integer, data frame rate in this file
EulerRotationOrder ZYX
CalibrationUnits mm
RotationUnits Degrees
GlobalAxisofGravity Y
BoneLengthAxis Y
ScaleFactor 1.00
[SegmentNames&Hierarchy]
#CHILD	PARENT
MASTER GLOBAL
root MASTER
chest root
L_mid_tent01 root
R_mid_tent01 root
spine01 root
Bip01_Neck chest
L_humerus chest
R_humerus chest
weapon_bone chest
Bip01_Head Bip01_Neck
eye_left_bone Bip01_Head
eye_right_bone Bip01_Head
L_forearm L_humerus
L_front_hand L_forearm
L_weapon_bone L_forearm
L_front_hand01_01 L_front_hand
L_front_hand02_01 L_front_hand
L_front_hand03_01 L_front_hand
L_front_hand01_02 L_front_hand01_01
L_front_hand02_02 L_front_hand02_01
L_front_hand03_02 L_front_hand03_01
R_forearm R_humerus
R_front_hand R_forearm
R_weapon_bone R_forearm
R_front_hand01_01 R_front_hand
R_front_hand02_01 R_front_hand
R_front_hand03_01 R_front_hand
R_front_hand01_02 R_front_hand01_01
R_front_hand02_02 R_front_hand02_01
R_front_hand03_02 R_front_hand03_01
null_rope01_connect L_mid_tent01
Rope1_Seg01 null_rope01_connect
Rope1_Seg02 Rope1_Seg01
Rope1_Seg03 Rope1_Seg02
Rope1_Seg04 Rope1_Seg03
Rope1_Seg05 Rope1_Seg04
Rope1_Seg06 Rope1_Seg05
Rope1_Seg07 Rope1_Seg06
Rope1_Seg09 Rope1_Seg07
L_mid_hand01 Rope1_Seg09
L_mid_hand02 Rope1_Seg09
L_mid_hand03 Rope1_Seg09
null_rope02_connect R_mid_tent01
Rope2_Seg01 null_rope02_connect
Rope2_Seg02 Rope2_Seg01
Rope2_Seg03 Rope2_Seg02
Rope2_Seg04 Rope2_Seg03
Rope2_Seg05 Rope2_Seg04
Rope2_Seg06 Rope2_Seg05
Rope2_Seg07 Rope2_Seg06
Rope2_Seg09 Rope2_Seg07
R_mid_hand01 Rope2_Seg09
R_mid_hand02 Rope2_Seg09
R_mid_hand03 Rope2_Seg09
spine02 spine01
spine03 spine02
pelvis spine03
null_rope03_connect pelvis
null_rope04_connect pelvis
Rope3_Seg01 null_rope03_connect
Rope3_Seg02 Rope3_Seg01
Rope3_Seg03 Rope3_Seg02
Rope3_Seg04 Rope3_Seg03
Rope3_Seg05 Rope3_Seg04
Rope3_Seg06 Rope3_Seg05
Rope3_Seg07 Rope3_Seg06
Rope3_Seg08 Rope3_Seg07
Rope3_Seg09 Rope3_Seg08
R_rear_hand01 Rope3_Seg09
R_rear_hand02 Rope3_Seg09
R_rear_hand03 Rope3_Seg09
Rope4_Seg01 null_rope04_connect
Rope4_Seg02 Rope4_Seg01
Rope4_Seg03 Rope4_Seg02
Rope4_Seg04 Rope4_Seg03
Rope4_Seg05 Rope4_Seg04
Rope4_Seg06 Rope4_Seg05
Rope4_Seg07 Rope4_Seg06
Rope4_Seg08 Rope4_Seg07
Rope4_Seg09 Rope4_Seg08
L_rear_hand01 Rope4_Seg09
L_rear_hand02 Rope4_Seg09
L_rear_hand03 Rope4_Seg09
[BasePosition]
#SegmentName Tx, Ty, Tz, Rx, Ry, Rz, BoneLength
MASTER 0.000000 0.000000 0.000000 -90.000000 0.000000 0.000000 10.000000 
root 0.000000 0.000000 0.000000 0.000000 0.000000 0.000000 10.000000 
chest 0.000000 0.000000 0.000000 0.000000 0.000000 0.000000 10.000000 
L_mid_tent01 0.000000 0.000000 0.000000 0.000000 0.000000 0.000000 10.000000 
R_mid_tent01 0.000000 0.000000 0.000000 0.000000 0.000000 0.000000 10.000000 
spine01 0.000000 0.000000 0.000000 0.000000 0.000000 0.000000 10.000000 
Bip01_Neck 0.000000 0.000000 0.000000 0.000000 0.000000 0.000000 10.000000 
L_humerus 0.000000 0.000000 0.000000 0.000000 0.000000 0.000000 10.000000 
R_humerus 0.000000 0.000000 0.000000 0.000000 0.000000 0.000000 10.000000 
weapon_bone 0.000000 0.000000 0.000000 0.000000 0.000000 0.000000 10.000000 
Bip01_Head 0.000000 0.000000 0.000000 0.000000 0.000000 0.000000 10.000000 
eye_left_bone 0.000000 0.000000 0.000000 0.000000 0.000000 0.000000 10.000000 
eye_right_bone 0.000000 0.000000 0.000000 0.000000 0.000000 0.000000 10.000000 
L_forearm 0.000000 0.000000 0.000000 0.000000 0.000000 0.000000 10.000000 
L_front_hand 0.000000 0.000000 0.000000 0.000000 0.000000 0.000000 10.000000 
L_weapon_bone 0.000000 0.000000 0.000000 0.000000 0.000000 0.000000 10.000000 
L_front_hand01_01 0.000000 0.000000 0.000000 0.000000 0.000000 0.000000 10.000000 
L_front_hand02_01 0.000000 0.000000 0.000000 0.000000 0.000000 0.000000 10.000000 
L_front_hand03_01 0.000000 0.000000 0.000000 0.000000 0.000000 0.000000 10.000000 
L_front_hand01_02 0.000000 0.000000 0.000000 0.000000 0.000000 0.000000 10.000000 
L_front_hand02_02 0.000000 0.000000 0.000000 0.000000 0.000000 0.000000 10.000000 
L_front_hand03_02 0.000000 0.000000 0.000000 0.000000 0.000000 0.000000 10.000000 
R_forearm 0.000000 0.000000 0.000000 0.000000 0.000000 0.000000 10.000000 
R_front_hand 0.000000 0.000000 0.000000 0.000000 0.000000 0.000000 10.000000 
R_weapon_bone 0.000000 0.000000 0.000000 0.000000 0.000000 0.000000 10.000000 
R_front_hand01_01 0.000000 0.000000 0.000000 0.000000 0.000000 0.000000 10.000000 
R_front_hand02_01 0.000000 0.000000 0.000000 0.000000 0.000000 0.000000 10.000000 
R_front_hand03_01 0.000000 0.000000 0.000000 0.000000 0.000000 0.000000 10.000000 
R_front_hand01_02 0.000000 0.000000 0.000000 0.000000 0.000000 0.000000 10.000000 
R_front_hand02_02 0.000000 0.000000 0.000000 0.000000 0.000000 0.000000 10.000000 
R_front_hand03_02 0.000000 0.000000 0.000000 0.000000 0.000000 0.000000 10.000000 
null_rope01_connect 0.000000 0.000000 0.000000 0.000000 0.000000 0.000000 10.000000 
Rope1_Seg01 0.000000 0.000000 0.000000 0.000000 0.000000 0.000000 10.000000 
Rope1_Seg02 0.000000 0.000000 0.000000 0.000000 0.000000 0.000000 10.000000 
Rope1_Seg03 0.000000 0.000000 0.000000 0.000000 0.000000 0.000000 10.000000 
Rope1_Seg04 0.000000 0.000000 0.000000 0.000000 0.000000 0.000000 10.000000 
Rope1_Seg05 0.000000 0.000000 0.000000 0.000000 0.000000 0.000000 10.000000 
Rope1_Seg06 0.000000 0.000000 0.000000 0.000000 0.000000 0.000000 10.000000 
Rope1_Seg07 0.000000 0.000000 0.000000 0.000000 0.000000 0.000000 10.000000 
Rope1_Seg09 0.000000 0.000000 0.000000 0.000000 0.000000 0.000000 10.000000 
L_mid_hand01 0.000000 0.000000 0.000000 0.000000 0.000000 0.000000 10.000000 
L_mid_hand02 0.000000 0.000000 0.000000 0.000000 0.000000 0.000000 10.000000 
L_mid_hand03 0.000000 0.000000 0.000000 0.000000 0.000000 0.000000 10.000000 
null_rope02_connect 0.000000 0.000000 0.000000 0.000000 0.000000 0.000000 10.000000 
Rope2_Seg01 0.000000 0.000000 0.000000 0.000000 0.000000 0.000000 10.000000 
Rope2_Seg02 0.000000 0.000000 0.000000 0.000000 0.000000 0.000000 10.000000 
Rope2_Seg03 0.000000 0.000000 0.000000 0.000000 0.000000 0.000000 10.000000 
Rope2_Seg04 0.000000 0.000000 0.000000 0.000000 0.000000 0.000000 10.000000 
Rope2_Seg05 0.000000 0.000000 0.000000 0.000000 0.000000 0.000000 10.000000 
Rope2_Seg06 0.000000 0.000000 0.000000 0.000000 0.000000 0.000000 10.000000 
Rope2_Seg07 0.000000 0.000000 0.000000 0.000000 0.000000 0.000000 10.000000 
Rope2_Seg09 0.000000 0.000000 0.000000 0.000000 0.000000 0.000000 10.000000 
R_mid_hand01 0.000000 0.000000 0.000000 0.000000 0.000000 0.000000 10.000000 
R_mid_hand02 0.000000 0.000000 0.000000 0.000000 0.000000 0.000000 10.000000 
R_mid_hand03 0.000000 0.000000 0.000000 0.000000 0.000000 0.000000 10.000000 
spine02 0.000000 0.000000 0.000000 0.000000 0.000000 0.000000 10.000000 
spine03 0.000000 0.000000 0.000000 0.000000 0.000000 0.000000 10.000000 
pelvis 0.000000 0.000000 0.000000 0.000000 0.000000 0.000000 10.000000 
null_rope03_connect 0.000000 0.000000 0.000000 0.000000 0.000000 0.000000 10.000000 
null_rope04_connect 0.000000 0.000000 0.000000 0.000000 0.000000 0.000000 10.000000 
Rope3_Seg01 0.000000 0.000000 0.000000 0.000000 0.000000 0.000000 10.000000 
Rope3_Seg02 0.000000 0.000000 0.000000 0.000000 0.000000 0.000000 10.000000 
Rope3_Seg03 0.000000 0.000000 0.000000 0.000000 0.000000 0.000000 10.000000 
Rope3_Seg04 0.000000 0.000000 0.000000 0.000000 0.000000 0.000000 10.000000 
Rope3_Seg05 0.000000 0.000000 0.000000 0.000000 0.000000 0.000000 10.000000 
Rope3_Seg06 0.000000 0.000000 0.000000 0.000000 0.000000 0.000000 10.000000 
Rope3_Seg07 0.000000 0.000000 0.000000 0.000000 0.000000 0.000000 10.000000 
Rope3_Seg08 0.000000 0.000000 0.000000 0.000000 0.000000 0.000000 10.000000 
Rope3_Seg09 0.000000 0.000000 0.000000 0.000000 0.000000 0.000000 10.000000 
R_rear_hand01 0.000000 0.000000 0.000000 0.000000 0.000000 0.000000 10.000000 
R_rear_hand02 0.000000 0.000000 0.000000 0.000000 0.000000 0.000000 10.000000 
R_rear_hand03 0.000000 0.000000 0.000000 0.000000 0.000000 0.000000 10.000000 
Rope4_Seg01 0.000000 0.000000 0.000000 0.000000 0.000000 0.000000 10.000000 
Rope4_Seg02 0.000000 0.000000 0.000000 0.000000 0.000000 0.000000 10.000000 
Rope4_Seg03 0.000000 0.000000 0.000000 0.000000 0.000000 0.000000 10.000000 
Rope4_Seg04 0.000000 0.000000 0.000000 0.000000 0.000000 0.000000 10.000000 
Rope4_Seg05 0.000000 0.000000 0.000000 0.000000 0.000000 0.000000 10.000000 
Rope4_Seg06 0.000000 0.000000 0.000000 0.000000 0.000000 0.000000 10.000000 
Rope4_Seg07 0.000000 0.000000 0.000000 0.000000 0.000000 0.000000 10.000000 
Rope4_Seg08 0.000000 0.000000 0.000000 0.000000 0.000000 0.000000 10.000000 
Rope4_Seg09 0.000000 0.000000 0.000000 0.000000 0.000000 0.000000 10.000000 
L_rear_hand01 0.000000 0.000000 0.000000 0.000000 0.000000 0.000000 10.000000 
L_rear_hand02 0.000000 0.000000 0.000000 0.000000 0.000000 0.000000 10.000000 
L_rear_hand03 0.000000 0.000000 0.000000 0.000000 0.000000 0.000000 10.000000 
#Beginning of Data. Separated by tabs
#Fr	Tx	Ty	Tz	Rx	Ry	Rz	SF
[MASTER]
13 -1316.967651 -2446.022705 1675.556396 0.001346 0.001923 -20.001186 3244.213379
14 -1272.603516 -2381.546631 1682.496948 0.001346 0.001923 -20.001186 3181.521729
[root]
13 93.519226 -0.828827 1276.835693 -78.383041 -3.906250 -98.017769 1280.256226
14 98.314369 7.087122 1249.538086 -78.657211 -4.285411 -97.735527 1253.419800
[chest]
13 -84.512650 -34.090519 0.000000 6.044242 1.210536 154.578262 91.129311
14 -84.512650 -34.090519 0.000000 4.106555 2.401505 152.576447 91.129311
[L_mid_tent01]
13 27.298870 22.179277 -249.918747 -8.529902 42.122288 57.990108 252.381714
14 27.298870 22.179277 -249.918747 -5.490759 41.919643 62.204529 252.381714
[R_mid_tent01]
13 23.228794 24.509907 226.238495 170.659912 -36.682556 65.264763 228.744751
14 23.228794 24.509907 226.238495 170.046967 -42.817970 67.094154 228.744751
[spine01]
13 -0.361383 -0.195265 0.000000 -0.000001 -0.000007 22.052340 0.410763
14 -0.361383 -0.195265 0.000000 -0.000001 -0.000007 22.052340 0.410763
[Bip01_Neck]
13 165.484543 71.581718 0.000119 176.643677 -1.657967 43.431911 180.302734
14 165.484543 71.581718 0.000119 176.643677 -1.657967 43.431915 180.302734
[L_humerus]
13 -13.983130 -135.272980 -120.471481 178.964996 1.892241 -146.979980 181.680161
14 -13.983130 -135.272980 -120.471481 178.964996 1.892241 -146.979980 181.680161
[R_humerus]
13 -13.983309 -135.273102 125.287651 176.357590 6.146129 -145.149719 184.909012
14 -13.983309 -135.273102 125.287651 176.357590 6.146129 -145.149719 184.909012
[weapon_bone]
13 235.964890 -300.705902 0.000000 0.000000 -89.951546 -128.212341 382.234833
14 235.964890 -300.705902 0.000000 0.000000 -89.951546 -128.212341 382.234833
[Bip01_Head]
13 213.643341 185.161423 18.934406 1.953327 2.794284 -43.898293 283.349152
14 213.665619 185.099487 19.730453 1.529048 2.794818 -43.898731 283.379791
[eye_left_bone]
13 -24.626970 125.451866 -64.772606 0.000000 -90.000000 -99.840431 143.318359
14 -24.626970 125.451866 -64.772606 0.000000 -90.000000 -99.840431 143.318359
[eye_right_bone]
13 -24.626970 125.451866 64.327362 0.000000 -89.965736 80.156380 143.117676
14 -24.626970 125.451866 64.327362 0.000000 -89.965736 80.156380 143.117676
[L_forearm]
13 322.776093 0.000000 -0.000119 0.001130 -0.002057 -147.582291 322.776093
14 322.776093 0.000000 -0.000119 0.001130 -0.002057 -147.582291 322.776093
[L_front_hand]
13 241.149185 -0.042021 -3.300071 -177.451309 -1.834301 -27.421371 241.171753
14 241.149185 -0.042021 -3.300071 -177.247284 -1.835492 -27.423323 241.171753
[L_weapon_bone]
13 156.183838 0.000000 0.000000 0.000014 0.000007 0.000001 156.183838
14 156.183838 0.000000 0.000000 0.000014 0.000007 0.000001 156.183838
[L_front_hand01_01]
13 86.095154 20.947098 -0.655860 -0.354658 -0.486175 73.948921 88.609184
14 86.095154 20.947098 -0.655860 -0.351574 -0.488460 73.688904 88.609184
[L_front_hand02_01]
13 86.935165 -11.437475 24.513514 152.217422 -59.242775 -58.838623 91.046425
14 86.935165 -11.437475 24.513514 151.833359 -59.120411 -58.391357 91.046425
[L_front_hand03_01]
13 86.637497 -14.123976 -20.424902 -151.900726 57.468803 -60.323391 90.126129
14 86.637497 -14.123976 -20.424902 -151.521881 57.338112 -59.875305 90.126129
[L_front_hand01_02]
13 71.020905 -0.000179 0.000030 0.000329 -0.002324 -106.132408 71.020905
14 71.020905 -0.000179 0.000030 0.000329 -0.002324 -106.120026 71.020905
[L_front_hand02_02]
13 71.020927 -0.000119 0.000060 0.000329 -0.002324 -106.132408 71.020927
14 71.020927 -0.000119 0.000060 0.000329 -0.002324 -106.120026 71.020927
[L_front_hand03_02]
13 71.020905 -0.000060 0.000060 0.000329 -0.002324 -106.132408 71.020905
14 71.020905 -0.000060 0.000060 0.000329 -0.002324 -106.120026 71.020905
[R_forearm]
13 322.776428 -0.000060 0.000030 0.114825 0.181654 -148.389832 322.776428
14 322.776428 -0.000060 0.000030 0.114825 0.181654 -148.389832 322.776428
[R_front_hand]
13 238.847015 -0.006795 2.210259 -2.635298 -10.645461 -26.312506 238.857239
14 238.847015 -0.006795 2.210259 -2.635298 -10.645461 -26.312506 238.857239
[R_weapon_bone]
13 155.664093 0.002503 -0.000030 0.003487 0.001180 -90.988930 155.664078
14 155.664093 0.002503 -0.000030 0.003487 0.001180 -90.988930 155.664078
[R_front_hand01_01]
13 87.624611 14.231146 22.918642 -152.071045 -59.192429 58.774857 91.683487
14 87.624611 14.231146 22.918642 -151.590546 -59.038094 58.212814 91.683487
[R_front_hand02_01]
13 89.356956 14.367283 -19.491137 152.181992 57.544323 60.893181 92.579636
14 89.356956 14.367283 -19.491137 151.761566 57.399368 60.393955 92.579636
[R_front_hand03_01]
13 87.286232 -22.307278 -0.143439 0.148026 -0.431465 -74.085533 90.091743
14 87.286232 -22.307278 -0.143439 0.146836 -0.431871 -73.769867 90.091743
[R_front_hand01_02]
13 71.020905 0.000060 0.000119 0.002326 -0.000314 105.367828 71.020905
14 71.020905 0.000060 0.000119 0.002326 -0.000313 105.312553 71.020905
[R_front_hand02_02]
13 71.020844 -0.000030 -0.000119 0.002326 -0.000314 105.367828 71.020836
14 71.020844 -0.000030 -0.000119 0.002326 -0.000313 105.312553 71.020836
[R_front_hand03_02]
13 71.020905 0.000000 0.000030 0.002326 -0.000314 105.367828 71.020905
14 71.020905 0.000000 0.000030 0.002326 -0.000313 105.312553 71.020905
[null_rope01_connect]
13 328.732483 0.000000 -0.000238 -126.531593 -38.833355 150.272217 328.732483
14 328.732483 0.000000 -0.000238 -126.104599 -39.186085 147.437347 328.732483
[Rope1_Seg01]
13 -0.000144 0.000000 0.000000 -28.832066 -22.706758 -171.548798 0.000144
14 -0.000143 0.000000 0.000000 -29.029684 -23.959194 -175.621841 0.000143
[Rope1_Seg02]
13 139.999863 -0.000179 0.000000 -9.208117 0.147500 -22.395601 139.999863
14 139.999863 -0.000179 0.000000 -8.102055 2.115210 -24.668213 139.999863
[Rope1_Seg03]
13 139.999924 0.000060 -0.000060 -4.369699 1.958082 -26.176813 139.999924
14 139.999924 0.000060 -0.000060 -2.719408 2.758462 -25.565598 139.999924
[Rope1_Seg04]
13 139.999924 -0.000060 -0.000119 0.432416 0.025949 -15.595684 139.999924
14 139.999924 -0.000060 -0.000119 1.152464 0.619051 -13.765244 139.999924
[Rope1_Seg05]
13 139.999832 0.000119 -0.000060 -0.636379 9.301286 -12.579534 139.999832
14 139.999832 0.000119 -0.000060 -0.806418 10.318469 -13.209956 139.999832
[Rope1_Seg06]
13 139.999954 0.000119 -0.000060 -12.338409 26.718229 -25.830595 139.999954
14 139.999954 0.000119 -0.000060 -11.329947 24.612347 -24.485992 139.999954
[Rope1_Seg07]
13 139.999985 0.000060 0.000000 -35.210129 18.916599 -15.358092 139.999985
14 139.999985 0.000060 0.000000 -26.760798 15.461612 -13.096572 139.999985
[Rope1_Seg09]
13 121.602913 0.000119 -0.000089 -89.793175 -1.359789 0.847147 121.602913
14 121.602913 0.000119 -0.000089 -89.793175 -1.359789 0.847147 121.602913
[L_mid_hand01]
13 103.859421 1.038730 8.195221 109.630608 -42.428215 -14.062108 104.187431
14 103.859421 1.038730 8.195221 110.331230 -44.470791 -15.085362 104.187431
[L_mid_hand02]
13 105.572853 -4.139662 -10.864139 -147.734787 32.524986 -39.820686 106.211075
14 105.572853 -4.139662 -10.864139 -148.937714 33.668667 -42.029247 106.211075
[L_mid_hand03]
13 104.641464 17.579376 -3.913581 -13.849794 12.791808 45.822674 106.179977
14 104.641464 17.579376 -3.913581 -13.360329 13.301841 47.989174 106.179977
[null_rope02_connect]
13 328.732849 0.000179 -0.000119 -173.772507 53.666595 -37.539707 328.732849
14 328.732849 0.000179 -0.000119 -168.126144 48.580303 -32.726112 328.732849
[Rope2_Seg01]
13 0.000144 0.000000 0.000000 -2.983560 23.852507 -63.354923 0.000144
14 0.000143 0.000000 0.000000 -12.560542 14.607392 -67.291481 0.000143
[Rope2_Seg02]
13 139.999741 -0.000060 -0.000119 11.986731 1.610110 12.313523 139.999756
14 139.999741 -0.000060 -0.000119 20.678133 2.520708 17.027843 139.999756
[Rope2_Seg03]
13 140.000107 0.000030 0.000000 3.691359 -1.723990 4.524976 140.000107
14 140.000107 0.000030 0.000000 6.815384 0.315858 5.715501 140.000107
[Rope2_Seg04]
13 139.999802 0.000000 -0.000060 10.295128 17.908512 5.328236 139.999802
14 139.999802 0.000000 -0.000060 9.319784 21.407146 2.559784 139.999802
[Rope2_Seg05]
13 139.999985 -0.000060 0.000119 6.462255 56.600399 5.604219 139.999985
14 139.999985 -0.000060 0.000119 -1.490480 54.791142 -6.834429 139.999985
[Rope2_Seg06]
13 139.999893 -0.000030 -0.000119 -7.600116 26.431343 0.688758 139.999893
14 139.999893 -0.000030 -0.000119 -5.940187 23.865267 -2.459354 139.999893
[Rope2_Seg07]
13 139.999893 0.000060 -0.000060 -4.206892 7.245749 1.173304 139.999893
14 139.999893 0.000060 -0.000060 -3.255557 7.229631 -0.015673 139.999893
[Rope2_Seg09]
13 121.338966 0.000089 -0.000060 33.793236 -1.359788 -0.847141 121.338966
14 121.338966 0.000089 -0.000060 33.793236 -1.359788 -0.847141 121.338966
[R_mid_hand01]
13 104.680779 11.144459 -10.335981 -35.659069 33.675755 40.429821 105.778534
14 104.680779 11.144459 -10.335981 -36.495327 32.739502 38.894321 105.778534
[R_mid_hand02]
13 104.070427 2.443552 8.231699 69.379761 -45.224773 15.491555 104.424065
14 104.070427 2.443552 8.231699 69.926315 -43.736977 14.713633 104.424065
[R_mid_hand03]
13 106.028137 -11.221827 -5.996406 -170.548004 12.734508 -50.222607 106.788818
14 106.028137 -11.221827 -5.996406 -170.196442 12.469418 -48.616356 106.788818
[spine02]
13 129.756927 0.001550 0.000119 0.433379 -4.036900 -13.958363 129.756927
14 129.756927 0.001550 0.000119 0.439027 -4.036242 -14.039024 129.756927
[spine03]
13 78.613892 0.081500 -4.899058 1.938105 3.810352 17.116087 78.766434
14 78.613892 0.081501 -4.899058 1.941209 3.808772 17.162870 78.766434
[pelvis]
13 169.435242 0.051022 0.000000 -0.062532 -0.179519 15.404520 169.435257
14 169.435242 0.051022 0.000000 -0.062680 -0.179467 15.499349 169.435257
[null_rope03_connect]
13 -1.257226 -2.466202 137.391083 -63.660007 -60.069424 120.131035 137.418976
14 -1.257226 -2.466202 137.391083 -63.893578 -60.490143 120.575706 137.418976
[null_rope04_connect]
13 -1.259640 -2.480268 -137.844437 -63.660007 -60.069424 120.131035 137.872513
14 -1.259640 -2.480268 -137.844437 -63.893578 -60.490143 120.575706 137.872513
[Rope3_Seg01]
13 0.000000 0.000009 0.000000 11.636950 28.933809 -92.948730 0.000009
14 0.000000 0.000010 0.000000 13.502226 27.943657 -89.300117 0.000010
[Rope3_Seg02]
13 139.999924 -0.000119 0.000060 -0.399319 3.277370 -2.770871 139.999924
14 139.999924 -0.000119 0.000060 -0.359007 3.983356 -4.104272 139.999924
[Rope3_Seg03]
13 139.999924 -0.000119 0.000119 -0.398376 3.085036 -2.542403 139.999924
14 139.999924 -0.000119 0.000119 -0.472914 3.880365 -4.068082 139.999924
[Rope3_Seg04]
13 139.999924 0.000119 0.000000 -0.476870 2.945086 -2.444885 139.999924
14 139.999924 0.000119 0.000000 -0.551944 3.449260 -3.424629 139.999924
[Rope3_Seg05]
13 139.999924 -0.000238 0.000060 -0.099808 1.469488 -1.354878 139.999924
14 139.999924 -0.000238 0.000060 -0.006128 1.158957 -0.769970 139.999924
[Rope3_Seg06]
13 139.999893 -0.000119 -0.000060 0.278054 0.829465 -0.762934 139.999893
14 139.999893 -0.000119 -0.000060 0.325104 0.695462 -0.490946 139.999893
[Rope3_Seg07]
13 139.999771 0.000060 -0.000119 0.399076 0.636726 -0.574784 139.999771
14 139.999771 0.000060 -0.000119 0.427162 0.567216 -0.466078 139.999771
[Rope3_Seg08]
13 139.999985 -0.000060 0.000000 0.465238 0.403790 -0.375055 139.999985
14 139.999985 -0.000060 0.000000 0.485423 0.359000 -0.293568 139.999985
[Rope3_Seg09]
13 90.185997 -0.000179 -0.000060 89.793228 -1.359877 -0.847183 90.185997
14 90.185997 -0.000179 -0.000060 89.793228 -1.359877 -0.847183 90.185997
[R_rear_hand01]
13 103.366196 -6.073594 -10.757982 -165.364609 20.073744 -42.141060 104.101845
14 103.366196 -6.073594 -10.757982 -164.915863 19.747875 -40.821388 104.101845
[R_rear_hand02]
13 100.509819 12.039542 -7.992327 -30.084064 25.665667 39.802113 101.543350
14 100.509819 12.039542 -7.992327 -30.611040 25.017698 38.577400 101.543350
[R_rear_hand03]
13 101.539970 5.215704 5.435467 82.244080 -42.772594 9.150355 101.819031
14 101.539970 5.215704 5.435467 82.396400 -41.501785 8.918382 101.819031
[Rope4_Seg01]
13 -0.000018 0.000000 0.000000 -80.724190 -5.558351 -159.193497 0.000018
14 -0.000019 0.000000 0.000000 -75.341141 -10.265483 -160.281479 0.000019
[Rope4_Seg02]
13 139.999985 0.000060 0.000119 -12.525695 2.801269 10.814992 139.999985
14 139.999985 0.000060 0.000119 -10.289877 4.531657 10.298495 139.999985
[Rope4_Seg03]
13 139.999924 0.000000 -0.000238 -25.814959 0.219060 15.935352 139.999924
14 139.999924 0.000000 -0.000238 -26.451668 3.612560 16.392254 139.999924
[Rope4_Seg04]
13 139.999985 0.000000 0.000119 -31.011549 -13.508994 17.934797 139.999985
14 139.999985 0.000000 0.000119 -40.261223 -10.659626 21.691826 139.999985
[Rope4_Seg05]
13 139.999802 -0.000060 -0.000119 -15.925278 -6.987449 12.154533 139.999802
14 139.999802 -0.000060 -0.000119 -19.160753 -8.754467 12.585364 139.999802
[Rope4_Seg06]
13 139.999924 0.000000 0.000060 -21.746960 1.738740 19.495090 139.999924
14 139.999924 0.000000 0.000060 -25.485029 -0.993588 20.740511 139.999924
[Rope4_Seg07]
13 139.999802 0.000000 0.000000 -18.199621 -6.233324 12.723701 139.999802
14 139.999802 0.000000 0.000000 -19.209784 -9.393251 13.538140 139.999802
[Rope4_Seg08]
13 139.999924 0.000000 0.000119 -9.919097 -6.112771 5.520392 139.999924
14 139.999924 0.000000 0.000119 -8.816571 -7.870920 4.876370 139.999924
[Rope4_Seg09]
13 90.185791 0.000060 0.000060 -135.617828 2.228885 0.850567 90.185791
14 90.185791 0.000060 0.000060 -135.617828 2.228885 0.850567 90.185791
[L_rear_hand01]
13 101.696655 -8.392275 -7.654577 -28.796078 -27.129276 137.298477 102.329041
14 101.696655 -8.392275 -7.654577 -27.588615 -28.361088 134.712082 102.329041
[L_rear_hand02]
13 102.726799 -1.568258 5.773216 81.840141 45.725391 170.277420 102.900848
14 102.726799 -1.568258 5.773216 81.431313 48.300438 169.720108 102.900848
[L_rear_hand03]
13 104.552910 9.721220 -10.420293 -166.442245 -20.805418 -134.771133 105.519653
14 104.552910 9.721220 -10.420293 -167.421646 -21.393103 -132.057709 105.519653
